<svg height="15" viewBox="0 0 21 15" width="21" xmlns="http://www.w3.org/2000/svg" xmlns:xlink="http://www.w3.org/1999/xlink"><linearGradient id="a" x1="50%" x2="50%" y1="0%" y2="100%"><stop offset="0" stop-color="#fff"/><stop offset="1" stop-color="#f0f0f0"/></linearGradient><linearGradient id="b" x1="50%" x2="50%" y1="0%" y2="100%"><stop offset="0" stop-color="#e71f37"/><stop offset="1" stop-color="#cc162c"/></linearGradient><linearGradient id="c" x1="50%" x2="50%" y1="0%" y2="100%"><stop offset="0" stop-color="#118b56"/><stop offset="1" stop-color="#0b6b41"/></linearGradient><linearGradient id="d" x1="50%" x2="50%" y1="0%" y2="100%"><stop offset="0" stop-color="#fdd64c"/><stop offset="1" stop-color="#fcd036"/></linearGradient><linearGradient id="e" x1="50%" x2="50%" y1="0%" y2="100%"><stop offset="0" stop-color="#262626"/><stop offset="1" stop-color="#0d0d0d"/></linearGradient><g fill="none" fill-rule="evenodd"><path d="m0 0h21v15h-21z" fill="url(#a)"/><path d="m0 0h21v5h-21z" fill="url(#b)"/><path d="m0 10h21v5h-21z" fill="url(#c)"/><path d="m0 5h21v5h-21z" fill="url(#d)"/><path d="m10.5 8.70877033-1.46946313 1.06377216.55761836-1.72626616-1.46579652-1.06881882 1.81409023-.003119.56355106-1.72433851.5635511 1.72433851 1.8140902.003119-1.4657965 1.06881882.5576183 1.72626616z" fill="url(#e)"/></g></svg>